<svg xmlns="http://www.w3.org/2000/svg" width="900" height="360" viewBox="0 0 900 360"><style>text{font-family:Arial,sans-serif;fill:#172554}.t{font-size:23px;font-weight:bold}.s{font-size:16px;fill:#475569}.z{fill:#f3f4f6;stroke:#64748b;stroke-width:2}.h{fill:#ede9fe;stroke:#7c3aed;stroke-width:2.5}.zero{fill:#fee2e2;stroke:#ef4444;stroke-width:2.5}.a{stroke:#f59e0b;stroke-width:3}.f{stroke:#cbd5e1;stroke-width:1.5;opacity:.5}</style><rect width="900" height="360" fill="white"/><text x="450" y="38" text-anchor="middle" class="t">ReLU 1: negative → 0</text><text x="245" y="80" text-anchor="middle" class="s">z₁ (25 values)</text><text x="655" y="80" text-anchor="middle" class="s">h (25 values)</text><g class="f"><path d="M267 115L632 115"/><path d="M267 165L632 165"/><path d="M267 215L632 215"/><path d="M267 265L632 265"/></g><g class="a"><path d="M267 115L632 115"/><path d="M267 215L632 215"/></g><g class="z"><circle cx="245" cy="115" r="25"/><circle cx="245" cy="165" r="25"/><circle cx="245" cy="215" r="25"/><circle cx="245" cy="265" r="25"/></g><g class="h"><circle cx="655" cy="115" r="25"/><circle cx="655" cy="215" r="25"/></g><g class="zero"><circle cx="655" cy="165" r="25"/><circle cx="655" cy="265" r="25"/></g><text x="245" y="121" text-anchor="middle" class="s">+</text><text x="245" y="171" text-anchor="middle" class="s">−</text><text x="245" y="221" text-anchor="middle" class="s">+</text><text x="245" y="271" text-anchor="middle" class="s">−</text><text x="655" y="121" text-anchor="middle" class="s">+</text><text x="655" y="171" text-anchor="middle" class="s">0</text><text x="655" y="221" text-anchor="middle" class="s">+</text><text x="655" y="271" text-anchor="middle" class="s">0</text><text x="450" y="332" text-anchor="middle" class="s">h = ReLU(z₁)</text></svg>
