<svg xmlns="http://www.w3.org/2000/svg" width="900" height="420" viewBox="0 0 900 420"><style>text{font-family:Arial,sans-serif;fill:#172554}.t{font-size:22px;font-weight:bold}.s{font-size:16px}.n{fill:#dbeafe;stroke:#2563eb;stroke-width:2}.a{stroke:#64748b;stroke-width:2;marker-end:url(#arrow)}</style><defs><marker id="arrow" markerWidth="10" markerHeight="10" refX="9" refY="3" orient="auto"><path d="M0,0 L0,6 L9,3 z" fill="#64748b"/></marker></defs><rect width="900" height="420" fill="white"/><text x="270" y="45" class="t">Hidden node → 7 × 7 pattern</text><rect x="100" y="100" width="260" height="260" fill="#f8fafc" stroke="#334155"/><g fill="#2563eb"><rect x="135" y="135" width="30" height="30"/><rect x="200" y="135" width="30" height="30"/><rect x="265" y="135" width="30" height="30"/><rect x="135" y="200" width="30" height="30"/><rect x="265" y="200" width="30" height="30"/><rect x="135" y="265" width="30" height="30"/><rect x="200" y="265" width="30" height="30"/><rect x="265" y="265" width="30" height="30"/></g><line x1="390" y1="230" x2="570" y2="230" class="a"/><circle cx="690" cy="230" r="75" class="n"/><text x="645" y="225" class="t">node</text><text x="640" y="255" class="s">feature</text><text x="105" y="390" class="s">weight map</text></svg>